<?xml version="1.0" encoding="UTF-8" standalone="no"?>
<svg
   xmlns:dc="http://purl.org/dc/elements/1.1/"
   xmlns:cc="http://creativecommons.org/ns#"
   xmlns:rdf="http://www.w3.org/1999/02/22-rdf-syntax-ns#"
   xmlns:svg="http://www.w3.org/2000/svg"
   xmlns="http://www.w3.org/2000/svg"
   xmlns:sodipodi="http://sodipodi.sourceforge.net/DTD/sodipodi-0.dtd"
   xmlns:inkscape="http://www.inkscape.org/namespaces/inkscape"
   width="192"
   height="45"
   viewBox="0 0 192 45"
   fill="none"
   version="1.1"
   id="svg12"
   sodipodi:docname="dumpty.svg"
   inkscape:version="1.0.2 (e86c8708, 2021-01-15)">
  <metadata
     id="metadata18">
    <rdf:RDF>
      <cc:Work
         rdf:about="">
        <dc:format>image/svg+xml</dc:format>
        <dc:type
           rdf:resource="http://purl.org/dc/dcmitype/StillImage" />
      </cc:Work>
    </rdf:RDF>
  </metadata>
  <defs
     id="defs16" />
  <sodipodi:namedview
     pagecolor="#ffffff"
     bordercolor="#666666"
     borderopacity="1"
     objecttolerance="10"
     gridtolerance="10"
     guidetolerance="10"
     inkscape:pageopacity="0"
     inkscape:pageshadow="2"
     inkscape:window-width="1440"
     inkscape:window-height="782"
     id="namedview14"
     showgrid="false"
     inkscape:zoom="5.7135417"
     inkscape:cx="96"
     inkscape:cy="22.5"
     inkscape:window-x="0"
     inkscape:window-y="25"
     inkscape:window-maximized="0"
     inkscape:current-layer="svg12" />
  <path
     d="M52.3707 36.3642C50.5896 36.0396 49.1993 35.5101 47.9478 34.6796C47.7558 34.5522 47.1529 34.004 46.6081 33.4613C45.5433 32.4007 44.978 31.4602 44.5348 30.0118C43.9877 28.2242 43.9905 28.2719 43.9905 20.5609V13.2292L47.2785 13.1988L50.5666 13.1683V19.9576C50.5666 27.3074 50.5893 27.6281 51.2019 28.9451C51.8796 30.402 53.0178 31.0589 54.8784 31.0669C56.0613 31.0719 56.8389 30.8636 57.5157 30.3601C58.1966 29.8536 58.6077 29.2652 58.9594 28.2934C59.2273 27.5531 59.2293 27.5068 59.2916 20.389L59.3543 13.2292H62.6133H65.8723L65.9081 18.957C65.9428 24.5245 65.8292 27.7903 65.5652 28.8089C65.1693 30.3367 65.1947 30.2603 64.7665 31.2092C64.0164 32.8709 62.304 34.5572 60.5182 35.3925C59.3846 35.9227 58.5673 36.1741 57.3174 36.3769C56.1101 36.5728 53.4786 36.566 52.3707 36.3641L52.3707 36.3642ZM13.515 36.0069C13.4723 35.9649 13.4374 33.4445 13.4374 30.4059C13.4374 25.4738 13.4571 24.8738 13.6215 24.8117C13.8942 24.7087 19.7568 24.7307 19.9243 24.8354C20.0306 24.9019 20.0758 25.6949 20.0988 27.898L20.13 30.871L22.807 30.87C25.7378 30.868 26.2463 30.797 27.5209 30.2096C28.7304 29.6521 29.9287 28.3425 30.3743 27.0912C31.0159 25.2896 30.8928 23.1786 30.0437 21.4206C29.6951 20.6983 28.4159 19.4651 27.622 19.0854C26.1986 18.4047 26.2338 18.408 19.6062 18.3362L13.4956 18.27V15.7498V13.2295L19.4316 13.193C25.6311 13.1549 26.868 13.2162 28.5684 13.6456C32.4734 14.6318 35.2939 16.9452 36.7204 20.332C37.3083 21.7277 37.6323 24.2701 37.4267 25.8739C37.1959 27.6745 37.0386 28.2258 36.2865 29.8688C35.9286 30.6507 35.0023 31.8922 34.2533 32.5938C33.5297 33.2717 32.5981 34.0215 32.4795 34.0215C32.4466 34.0215 32.1685 34.1661 31.8616 34.3429C31.1274 34.7658 29.637 35.3338 28.6525 35.5661C26.6629 36.0354 25.8214 36.0835 19.6066 36.0835C16.2989 36.0835 13.5576 36.0491 13.515 36.0071L13.515 36.0069ZM73.496 29.3264C73.496 25.32 73.5393 22.5656 73.6024 22.5656C73.6609 22.5656 73.9056 22.9136 74.1463 23.3389C74.3869 23.7642 74.6869 24.2925 74.8129 24.5131C74.9389 24.7336 75.1655 25.1331 75.3165 25.4009C75.6554 26.0019 76.1125 26.8114 76.4969 27.4915C76.6572 27.7751 77.0689 28.488 77.4118 29.0758C77.7547 29.6636 78.0353 30.1639 78.0353 30.1877C78.0353 30.2115 78.1831 30.478 78.3638 30.78C78.5444 31.0821 78.9126 31.7272 79.182 32.2137L79.6718 33.0982L79.6392 34.5621L79.6066 36.026L76.5513 36.0565L73.496 36.087V29.3264ZM94.5262 36.0088C94.4825 35.9657 94.4467 35.1629 94.4467 34.2247C94.4467 32.6172 94.4635 32.4895 94.7377 32.0099C94.8977 31.73 95.1596 31.2691 95.3196 30.9855C95.4797 30.702 95.7416 30.238 95.9016 29.9545C96.0616 29.671 96.3306 29.1941 96.4993 28.8949C96.6681 28.5956 96.9823 28.0515 97.1977 27.6859C97.4131 27.3202 97.5893 27.0008 97.5893 26.976C97.5893 26.9513 97.7655 26.6319 97.9809 26.2662C98.1963 25.9005 98.5031 25.3694 98.6628 25.0859C98.8225 24.8023 99.0562 24.3899 99.1822 24.1694C99.3082 23.9489 99.6103 23.4167 99.8536 22.9868C100.097 22.5569 100.336 22.2476 100.385 22.2995C100.434 22.3513 100.492 25.461 100.515 29.2099L100.557 36.026L97.5815 36.0565C95.9448 36.0733 94.57 36.0515 94.5262 36.0088H94.5262ZM108.442 30.5577L108.472 25.0286L114.175 24.9602C119.077 24.9014 119.96 24.8648 120.459 24.6998C121.688 24.2931 122.306 23.6259 122.624 22.3624C122.928 21.1519 122.34 19.5934 121.35 18.9877C120.375 18.3906 120.483 18.4005 114.524 18.3619C111.452 18.342 108.82 18.2992 108.676 18.2669C108.414 18.2081 108.414 18.2076 108.414 15.69V13.172H114.531C117.896 13.172 120.868 13.2193 121.136 13.2771C121.405 13.3349 121.939 13.445 122.323 13.5217C125.691 14.1941 128.06 16.1791 129.016 19.1289C129.256 19.8692 129.295 20.2179 129.298 21.6492C129.301 23.0973 129.265 23.4204 129.019 24.1694C128.445 25.9218 127.481 27.2385 126.103 28.1498C125.109 28.807 124.398 29.1817 123.71 29.4105C123.065 29.6251 122.658 29.7193 121.124 30.0096C120.785 30.0738 119.28 30.1264 117.78 30.1264H115.052L115.021 33.0762L114.99 36.026L111.701 36.0565L108.411 36.0869L108.442 30.5577ZM140.189 27.3337C140.189 20.1802 140.161 18.561 140.034 18.4573C139.93 18.3725 138.744 18.3205 136.455 18.3001L133.031 18.2697L133 15.7202L132.968 13.1707L143.417 13.1999L153.865 13.2291V15.7494V18.2696L150.315 18.3269L146.765 18.3842L146.735 27.2337L146.706 36.0832H143.447H140.189V27.3337ZM164.864 31.9817V27.8801L164.515 27.3382C164.323 27.0401 164.166 26.7788 164.166 26.7575C164.166 26.7362 163.59 25.7777 162.886 24.6276C162.181 23.4775 161.605 22.5137 161.605 22.4858C161.605 22.4579 161.448 22.2103 161.256 21.9355C161.064 21.6608 160.907 21.4031 160.907 21.3628C160.907 21.3225 160.75 21.0647 160.558 20.79C160.366 20.5152 160.209 20.2575 160.209 20.2172C160.209 20.1769 160.051 19.9191 159.859 19.6444C159.667 19.3697 159.51 19.1106 159.51 19.0687C159.51 19.0268 159.412 18.8556 159.291 18.6884C159.171 18.5211 158.969 18.2039 158.844 17.9833C158.718 17.7628 158.055 16.6644 157.369 15.5425C156.683 14.4206 156.093 13.4282 156.058 13.3373C156.003 13.1955 156.489 13.172 159.478 13.172H162.963L163.128 13.4834C163.219 13.6546 164.17 15.2342 165.243 16.9935C166.315 18.7529 167.192 20.2144 167.192 20.2414C167.192 20.2683 167.349 20.5152 167.541 20.79C167.733 21.0647 167.891 21.3317 167.891 21.3834C167.892 21.5195 168.443 22.1753 168.499 22.1074C168.588 22.0004 169.927 19.7673 169.974 19.6482C169.999 19.5831 170.169 19.3144 170.352 19.051C170.535 18.7876 170.684 18.5485 170.684 18.5196C170.684 18.4907 171.103 17.7854 171.615 16.9523C172.127 16.1193 172.546 15.414 172.546 15.3851C172.546 15.3562 172.703 15.1078 172.895 14.833C173.087 14.5583 173.245 14.3005 173.245 14.2602C173.245 14.2199 173.404 13.9586 173.599 13.6795L173.954 13.172H177.091C178.939 13.172 180.228 13.2156 180.228 13.2781C180.228 13.3365 179.966 13.8042 179.646 14.3175C179.326 14.8308 179.064 15.2764 179.064 15.3077C179.064 15.339 178.907 15.5893 178.715 15.864C178.523 16.1388 178.366 16.3856 178.366 16.4126C178.366 16.4395 177.475 17.9197 176.387 19.7017C175.299 21.4837 174.408 22.9638 174.408 22.9908C174.408 23.0177 174.251 23.2646 174.059 23.5393C173.867 23.8141 173.71 24.0644 173.71 24.0957C173.71 24.127 173.448 24.5726 173.128 25.0859C172.808 25.5992 172.546 26.0447 172.546 26.076C172.546 26.1073 172.389 26.3576 172.197 26.6324C172.005 26.9071 171.847 27.1741 171.845 27.2258C171.844 27.2774 171.74 27.4486 171.615 27.6061C171.399 27.878 171.387 28.0997 171.385 31.9879L171.382 36.0833H168.123H164.864L164.864 31.9817ZM85.2951 33.4771C85.188 33.3039 84.8726 32.8148 84.5941 32.3902C84.3156 31.9657 84.0877 31.5911 84.0877 31.5579C84.0877 31.5001 83.8505 31.1251 82.7302 29.4117C82.4526 28.9872 82.2254 28.6127 82.2254 28.5794C82.2254 28.5216 81.9882 28.1467 80.8679 26.4333C80.5903 26.0087 80.3632 25.6314 80.3632 25.5947C80.3632 25.5581 80.2133 25.3126 80.0301 25.0492C79.8469 24.7858 79.4873 24.1837 79.2308 23.7112C78.2877 21.9731 77.8843 21.2351 77.5715 20.6754C77.3954 20.3604 77.061 19.7547 76.8285 19.3294C76.3311 18.4194 75.7447 17.3475 75.1991 16.3509C74.9836 15.9571 74.5839 15.2225 74.311 14.7185C74.0381 14.2144 73.7693 13.753 73.7136 13.6932C73.6579 13.6333 73.6124 13.4916 73.6124 13.3782C73.6124 13.1856 73.7881 13.172 76.2614 13.172C78.8819 13.172 78.9122 13.175 79.076 13.4297C79.462 14.0307 80.4099 15.5468 80.5981 15.864C80.89 16.3562 82.3218 18.6725 83.0409 19.8162C83.3777 20.3518 83.7446 20.9446 83.8563 21.1336C83.968 21.3227 84.4912 22.1732 85.0189 23.0238C85.5466 23.8744 86.0749 24.7364 86.1931 24.9393C86.3112 25.1423 86.5513 25.5217 86.7267 25.7825L87.0455 26.2567L87.3032 25.9387C87.4449 25.7638 87.6289 25.4874 87.7121 25.3246C87.7953 25.1618 88.009 24.8131 88.187 24.5497C88.365 24.2863 88.5107 24.0452 88.5107 24.014C88.5107 23.9827 88.7725 23.5371 89.0926 23.0238C89.4127 22.5105 89.6746 22.0751 89.6746 22.0562C89.6746 22.0373 90.2507 21.0809 90.9549 19.9308C91.6591 18.7807 92.2352 17.8169 92.2352 17.7889C92.2352 17.761 92.3923 17.5135 92.5844 17.2387C92.7764 16.964 92.9336 16.7136 92.9336 16.6823C92.9336 16.651 93.1955 16.2055 93.5155 15.6922C93.8356 15.1789 94.0975 14.7421 94.0975 14.7216C94.0975 14.7011 94.2997 14.3568 94.5468 13.9567L94.9962 13.2292L97.4829 13.1982C98.8506 13.1812 100.04 13.1932 100.126 13.2263C100.242 13.2703 100.157 13.5128 99.7938 14.1738C99.1113 15.4147 98.4508 16.6203 97.3143 18.6993C97.099 19.0931 96.7324 19.7633 96.4995 20.1886C95.4363 22.1305 95.2624 22.4488 94.794 23.3102C94.5199 23.8143 94.2062 24.3556 94.0968 24.5131C93.9874 24.6706 93.8773 24.854 93.8522 24.9207C93.8271 24.9874 92.6047 27.0107 91.1357 29.4171L88.4649 33.7922H86.9774H85.4898L85.2951 33.4771Z"
     fill="black"
     id="path10"
     style="fill:#d4aa00" />
</svg>
